<svg width="88" height="103" viewBox="0 0 88 103" fill="none" xmlns="http://www.w3.org/2000/svg">
<path d="M25.206 48.1246C25.1366 47.8432 25.0791 47.5383 25.0333 47.21L24.896 46.2251C24.8047 45.5217 24.7606 44.7012 24.7637 43.7637C24.767 42.8028 24.9817 41.702 25.4077 40.4612C25.8572 39.2205 26.5757 38.1448 27.5632 37.2341C29.6792 35.2725 32.9404 34.2992 37.3466 34.3141L63.3898 57.3594C63.6213 58.204 63.7347 59.3294 63.7299 60.7356C63.7253 62.1184 63.4864 63.4418 63.0134 64.7059C62.5404 65.9465 61.7868 67.022 60.7524 67.9326C58.5425 69.9408 55.3282 70.9377 51.1094 70.9234L25.4521 48.1255L25.206 48.1246ZM64.064 34.7561C64.7635 35.8366 65.11 37.3144 65.1037 39.1894C65.0919 42.6581 63.7824 45.2435 61.175 46.9456L47.1188 34.6987L64.064 34.7561ZM24.1108 70.4804C23.4113 69.3999 23.0647 67.9222 23.0711 66.0472C23.0828 62.6019 24.3805 60.0282 26.9644 58.326L41.056 70.5378L24.1108 70.4804Z" fill="#FBFBFB"/>
<path d="M8.2678 84.6495L8.05296 84.6487C8.00138 84.4988 7.91732 84.3293 7.80078 84.1401C7.69074 83.9509 7.54159 83.7746 7.35334 83.6112C7.17163 83.4413 6.94749 83.3006 6.68094 83.189C6.4209 83.0774 6.11185 83.0211 5.75377 83.0198C5.43477 83.0188 5.1514 83.0666 4.90367 83.1635C4.65595 83.2603 4.44715 83.3963 4.27729 83.5715C4.11393 83.7467 3.98953 83.9546 3.90408 84.1952C3.81863 84.4358 3.77541 84.7026 3.77442 84.9956C3.77283 85.4643 3.90152 85.914 4.16048 86.3445C4.42597 86.7686 4.75658 87.1897 5.1523 87.6077C5.54802 88.0257 5.9763 88.4438 6.43713 88.862C6.89795 89.2803 7.32617 89.7147 7.72178 90.1652C8.1174 90.6158 8.44457 91.0889 8.70331 91.5846C8.96858 92.0737 9.10026 92.6015 9.09834 93.1679C9.09691 93.5911 9.0206 94.0173 8.8694 94.4465C8.72474 94.8692 8.49885 95.2493 8.19171 95.5868C7.88458 95.9243 7.48976 96.1996 7.00727 96.4128C6.52479 96.6195 5.95153 96.7218 5.28747 96.7195C4.91638 96.7183 4.56168 96.6813 4.22339 96.6085C3.89158 96.5423 3.58261 96.4598 3.29648 96.3612C3.01689 96.2561 2.76336 96.1446 2.53589 96.0266C2.31494 95.9087 2.13301 95.8006 1.99011 95.7025L2.22203 93.5451L2.46617 93.5459C2.53675 93.8521 2.65294 94.1455 2.81475 94.426C2.97659 94.7 3.17433 94.9448 3.40797 95.1604C3.64815 95.3696 3.92101 95.5398 4.22656 95.671C4.53213 95.7957 4.8672 95.8587 5.23179 95.8599C5.56382 95.8611 5.8602 95.8132 6.12095 95.7165C6.38823 95.6132 6.61656 95.474 6.80596 95.2989C6.99538 95.1172 7.13933 94.9029 7.23783 94.6558C7.34283 94.4088 7.39583 94.1387 7.39682 93.8458C7.39821 93.4356 7.32462 93.0578 7.17605 92.7122C7.0275 92.3601 6.83006 92.0274 6.58372 91.7141C6.34389 91.4008 6.06823 91.0971 5.75672 90.8031C5.45173 90.5091 5.13696 90.2151 4.81244 89.921C4.48793 89.6204 4.16996 89.3133 3.85852 88.9998C3.55359 88.6863 3.27802 88.3533 3.03182 88.0009C2.79215 87.642 2.59812 87.2605 2.44975 86.8563C2.3014 86.4457 2.22805 85.9962 2.22971 85.5079C2.23145 84.9936 2.33067 84.5317 2.52737 84.1222C2.7306 83.7062 2.99547 83.3523 3.32198 83.0604C3.655 82.7686 4.03011 82.5453 4.4473 82.3904C4.8645 82.2356 5.29445 82.1589 5.73715 82.1604C6.06267 82.1615 6.36206 82.1886 6.63532 82.2416C6.90858 82.2946 7.15251 82.3573 7.36711 82.4296C7.58822 82.502 7.78003 82.5742 7.94255 82.6464C8.10507 82.7186 8.23833 82.7776 8.34235 82.8235L8.2678 84.6495ZM17.6629 93.1579C17.4871 93.1573 17.2657 93.1565 16.9988 93.1556C16.7384 93.1547 16.4519 93.1538 16.1395 93.1527C15.827 93.1517 15.5047 93.1506 15.1727 93.1494C14.8406 93.1483 14.5249 93.1505 14.2254 93.156C13.9259 93.155 13.6524 93.1573 13.405 93.163C13.1576 93.1622 12.9656 93.1615 12.8289 93.161L12.465 93.9215C12.3076 94.2335 12.1733 94.5065 12.0618 94.7405C11.9503 94.968 11.8585 95.1695 11.7863 95.345C11.7141 95.5206 11.6615 95.6734 11.6285 95.8035C11.5955 95.9271 11.5789 96.0442 11.5785 96.1549C11.5782 96.2265 11.5813 96.2818 11.5877 96.3209C11.5941 96.3535 11.6038 96.3796 11.6167 96.3991L11.6166 96.4382L9.89784 96.4324L9.89798 96.3933C9.9437 96.3479 10.0156 96.2505 10.1138 96.1011C10.212 95.9452 10.3233 95.7567 10.4478 95.5358C10.5787 95.3149 10.7163 95.0647 10.8605 94.7852C11.0111 94.5058 11.1586 94.2166 11.3028 93.9176L15.315 85.7085L16.0475 85.711L19.9258 93.9468C20.0745 94.2598 20.2233 94.5598 20.372 94.8467C20.5273 95.1337 20.6697 95.3914 20.7991 95.6197C20.9286 95.8415 21.0419 96.0274 21.139 96.1775C21.2362 96.321 21.301 96.4059 21.3335 96.432L21.3333 96.4711L18.8333 96.4626C18.8465 96.4106 18.8532 96.365 18.8533 96.326C18.8535 96.2804 18.8537 96.2316 18.8538 96.1795C18.8543 96.0363 18.8223 95.8636 18.7579 95.6616C18.7 95.4596 18.6258 95.2542 18.5354 95.0456C18.4515 94.8305 18.361 94.6251 18.264 94.4294C18.1736 94.2338 18.0992 94.0708 18.0411 93.9404L17.6629 93.1579ZM13.2124 92.3811L13.8081 92.3831C14.0815 92.384 14.3712 92.385 14.6772 92.386C14.9897 92.3806 15.3022 92.3784 15.6147 92.3795C15.9272 92.3805 16.23 92.3815 16.5229 92.3825C16.8159 92.377 17.0796 92.3746 17.314 92.3754L15.3071 88.0522L13.2124 92.3811ZM23.2536 85.9795L23.2535 86.0186C23.2404 86.0511 23.2304 86.1031 23.2237 86.1747C23.2169 86.2463 23.2134 86.3081 23.2133 86.3602C23.2126 86.5686 23.2411 86.803 23.2988 87.0636C23.363 87.3178 23.4791 87.6372 23.6471 88.0219L26.2248 93.9095L28.8616 88.1176C28.9207 87.9941 28.9797 87.8641 29.0388 87.7276C29.0978 87.5846 29.1537 87.4383 29.2063 87.2887C29.2588 87.1392 29.3017 86.9896 29.3347 86.8399C29.3678 86.6838 29.3846 86.5309 29.3851 86.3811C29.3854 86.2965 29.3791 86.2248 29.3663 86.1662C29.3535 86.1011 29.3406 86.0587 29.3277 86.0391L29.3278 86.0001L31.1735 86.0063L31.1734 86.0454C31.0492 86.1752 30.8889 86.4057 30.6925 86.7371C30.4961 87.062 30.2929 87.4779 30.0828 87.9851L26.1571 96.6242L25.5321 96.622L21.9659 88.4556C21.8367 88.1557 21.6977 87.8688 21.5489 87.5948C21.4066 87.3144 21.2708 87.0665 21.1413 86.8513C21.0183 86.6295 20.9083 86.4468 20.8111 86.3033C20.714 86.1532 20.6459 86.0553 20.607 86.0096L20.6072 85.9705L23.2536 85.9795ZM32.1696 86.0097C32.8076 86.0118 33.4619 86.0141 34.1325 86.0163C34.8031 86.0121 35.4248 86.0077 35.9978 86.0031C36.5707 85.992 37.0623 85.9807 37.4725 85.969C37.8892 85.9574 38.1627 85.9388 38.293 85.9132L37.9086 86.9666C37.7329 86.9204 37.5345 86.8775 37.3133 86.8376C37.1181 86.8044 36.8806 86.7743 36.6007 86.7473C36.3274 86.7139 36.0084 86.6965 35.6438 86.6953C35.5136 86.6948 35.3639 86.7008 35.1946 86.7133C35.0253 86.7192 34.8625 86.7284 34.7062 86.7409C34.5239 86.7533 34.3383 86.7657 34.1494 86.7781L34.1364 90.6355C34.6637 90.6308 35.139 90.6194 35.5623 90.6013C35.9855 90.5832 36.3469 90.5584 36.6465 90.5268C36.9982 90.502 37.3075 90.4672 37.5746 90.4225L37.3363 91.5838C36.9784 91.5371 36.6172 91.4968 36.2527 91.463C35.9403 91.4294 35.5954 91.4022 35.2178 91.3814C34.8403 91.354 34.479 91.3398 34.134 91.3386L34.119 95.7722C34.7244 95.7742 35.2811 95.7533 35.7891 95.7095C36.2971 95.6591 36.74 95.6053 37.1178 95.548C37.5607 95.4779 37.9614 95.3978 38.3198 95.3079L38.0908 96.5864C37.9932 96.5796 37.8337 96.5693 37.6124 96.5555C37.3976 96.5483 37.1698 96.541 36.9289 96.5337C36.6945 96.5329 36.4732 96.5289 36.2649 96.5217C36.0565 96.5209 35.9133 96.5205 35.8352 96.5202L32.134 96.5077L32.1342 96.4686C32.1802 96.332 32.2199 96.1564 32.2531 95.9417C32.2929 95.727 32.3231 95.4634 32.3437 95.1509C32.3708 94.832 32.3916 94.4545 32.4061 94.0183C32.4206 93.5822 32.4289 93.0711 32.4309 92.4852L32.4392 90.0243C32.4412 89.4384 32.4364 88.9305 32.4248 88.5008C32.4133 88.0646 32.395 87.6901 32.37 87.3776C32.3516 87.0585 32.3232 86.7915 32.2849 86.5765C32.253 86.3615 32.2146 86.1856 32.1695 86.0487L32.1696 86.0097ZM46.4902 84.7789L46.2754 84.7781C46.2238 84.6282 46.1398 84.4587 46.0232 84.2695C45.9132 84.0803 45.764 83.904 45.5758 83.7406C45.3941 83.5707 45.1699 83.43 44.9034 83.3184C44.6433 83.2068 44.3343 83.1505 43.9762 83.1492C43.6572 83.1482 43.3738 83.196 43.1261 83.2929C42.8784 83.3897 42.6696 83.5257 42.4997 83.7009C42.3364 83.8761 42.212 84.084 42.1265 84.3246C42.0411 84.5652 41.9978 84.832 41.9969 85.125C41.9953 85.5937 42.124 86.0434 42.3829 86.4739C42.6484 86.898 42.979 87.3191 43.3747 87.7371C43.7705 88.1551 44.1987 88.5732 44.6596 88.9914C45.1204 89.4097 45.5486 89.8441 45.9442 90.2946C46.3398 90.7452 46.667 91.2183 46.9257 91.714C47.191 92.2032 47.3227 92.7309 47.3208 93.2973C47.3193 93.7205 47.243 94.1467 47.0918 94.5759C46.9472 94.9986 46.7213 95.3787 46.4141 95.7162C46.107 96.0537 45.7122 96.329 45.2297 96.5422C44.7472 96.7489 44.174 96.8512 43.5099 96.8489C43.1388 96.8477 42.7841 96.8107 42.4458 96.7379C42.114 96.6717 41.805 96.5892 41.5189 96.4906C41.2393 96.3855 40.9858 96.274 40.7583 96.156C40.5374 96.0381 40.3554 95.93 40.2126 95.8319L40.4445 93.6745L40.6886 93.6753C40.7592 93.9815 40.8754 94.2749 41.0372 94.5554C41.199 94.8294 41.3968 95.0742 41.6304 95.2898C41.8706 95.499 42.1435 95.6692 42.449 95.8004C42.7546 95.9251 43.0896 95.9881 43.4542 95.9893C43.7863 95.9905 44.0826 95.9426 44.3434 95.8459C44.6107 95.7426 44.839 95.6034 45.0284 95.4283C45.2178 95.2466 45.3618 95.0323 45.4603 94.7852C45.5653 94.5382 45.6183 94.2682 45.6193 93.9752C45.6206 93.565 45.5471 93.1872 45.3985 92.8416C45.2499 92.4895 45.0525 92.1568 44.8062 91.8435C44.5663 91.5302 44.2907 91.2265 43.9792 90.9325C43.6742 90.6385 43.3594 90.3445 43.0349 90.0504C42.7104 89.7498 42.3924 89.4427 42.081 89.1292C41.776 88.8157 41.5005 88.4827 41.2543 88.1303C41.0146 87.7714 40.8206 87.3899 40.6722 86.9857C40.5238 86.5751 40.4505 86.1256 40.4521 85.6373C40.4539 85.123 40.5531 84.6611 40.7498 84.2516C40.953 83.8356 41.2179 83.4817 41.5444 83.1898C41.8774 82.898 42.2525 82.6747 42.6697 82.5198C43.0869 82.365 43.5169 82.2883 43.9596 82.2898C44.2851 82.2909 44.5845 82.318 44.8578 82.371C45.131 82.424 45.3749 82.4867 45.5895 82.559C45.8107 82.6314 46.0025 82.7036 46.165 82.7758C46.3275 82.848 46.4608 82.907 46.5648 82.9529L46.4902 84.7789ZM51.5934 91.8177C51.7235 91.8376 51.8504 91.8576 51.9741 91.8775C52.1042 91.891 52.2311 91.8979 52.3548 91.8984C52.7259 91.8996 53.0647 91.8454 53.371 91.7358C53.6839 91.6197 53.9482 91.448 54.1638 91.2209C54.3859 90.9938 54.5562 90.7046 54.6745 90.3535C54.7994 90.0023 54.8627 89.5924 54.8643 89.1236C54.8655 88.746 54.8244 88.4041 54.7408 88.0978C54.6572 87.7916 54.5311 87.5307 54.3626 87.3153C54.2005 87.0934 53.996 86.9234 53.749 86.8054C53.5021 86.6809 53.2158 86.618 52.8903 86.6169C52.682 86.6162 52.4964 86.6254 52.3336 86.6444C52.1773 86.6568 52.0438 86.6727 51.933 86.6918C51.8092 86.7175 51.7017 86.7431 51.6105 86.7689L51.5934 91.8177ZM51.5911 92.4915C51.5891 93.0774 51.5939 93.5918 51.6054 94.0345C51.6169 94.4773 51.6319 94.8614 51.6503 95.187C51.6753 95.5061 51.7037 95.7764 51.7355 95.9979C51.7673 96.2193 51.8058 96.3985 51.8509 96.5354L51.8507 96.5744L49.5949 96.5668L49.595 96.5277C49.641 96.3912 49.6807 96.2155 49.714 96.0008C49.7538 95.7861 49.784 95.5225 49.8046 95.2101C49.8317 94.8911 49.8525 94.5136 49.867 94.0775C49.8815 93.6413 49.8897 93.1303 49.8917 92.5443L49.9 90.0834C49.902 89.4975 49.8972 88.9896 49.8857 88.5599C49.8741 88.1237 49.8559 87.7493 49.8309 87.4367C49.8124 87.1176 49.784 86.8506 49.7457 86.6356C49.7139 86.4206 49.6754 86.2447 49.6303 86.1079L49.6304 86.0688C49.7736 86.0758 49.9168 86.0828 50.06 86.0898C50.1837 86.0967 50.3139 86.1037 50.4506 86.1106C50.5938 86.1111 50.7273 86.1116 50.851 86.112C51.0593 86.1127 51.3654 86.0942 51.7691 86.0565C52.1794 86.0188 52.6613 86.0009 53.2147 86.0028C53.7225 86.0045 54.1942 86.0745 54.63 86.2127C55.0657 86.3444 55.4394 86.5409 55.751 86.8024C56.0691 87.0639 56.3155 87.3838 56.49 87.762C56.671 88.1337 56.7607 88.5637 56.759 89.0519C56.7571 89.6248 56.6447 90.1323 56.4218 90.5742C56.199 91.0097 55.895 91.3765 55.5099 91.6747C55.1313 91.9664 54.6846 92.1862 54.1698 92.3342C53.655 92.4822 53.1078 92.5552 52.5284 92.5533C52.2224 92.5522 51.91 92.5316 51.5911 92.4915ZM64.4204 93.3162C64.2446 93.3156 64.0233 93.3148 63.7564 93.3139C63.496 93.313 63.2095 93.3121 62.897 93.311C62.5845 93.31 62.2622 93.3089 61.9302 93.3077C61.5982 93.3066 61.2824 93.3088 60.9829 93.3143C60.6834 93.3133 60.41 93.3156 60.1626 93.3213C59.9152 93.3205 59.7231 93.3198 59.5864 93.3193L59.2225 94.0798C59.0652 94.3918 58.9308 94.6648 58.8193 94.8988C58.7079 95.1263 58.6161 95.3278 58.5438 95.5033C58.4716 95.6789 58.419 95.8317 58.386 95.9618C58.3531 96.0854 58.3364 96.2025 58.336 96.3132C58.3358 96.3848 58.3389 96.4401 58.3452 96.4792C58.3516 96.5118 58.3613 96.5379 58.3743 96.5574L58.3741 96.5965L56.6554 96.5907L56.6555 96.5516C56.7012 96.5062 56.7732 96.4088 56.8714 96.2594C56.9695 96.1035 57.0809 95.915 57.2053 95.6941C57.3363 95.4732 57.4738 95.223 57.618 94.9435C57.7687 94.6641 57.9162 94.3749 58.0604 94.0759L62.0726 85.8668L62.805 85.8693L66.6834 94.1051C66.8321 94.4181 66.9808 94.7181 67.1296 95.005C67.2848 95.292 67.4272 95.5497 67.5566 95.778C67.6861 95.9998 67.7994 96.1857 67.8966 96.3358C67.9937 96.4793 68.0585 96.5642 68.091 96.5903L68.0909 96.6294L65.5909 96.6209C65.6041 96.5689 65.6107 96.5233 65.6109 96.4843C65.611 96.4387 65.6112 96.3899 65.6114 96.3378C65.6119 96.1946 65.5799 96.0219 65.5155 95.8199C65.4576 95.6179 65.3834 95.4125 65.2929 95.2039C65.209 94.9888 65.1186 94.7834 65.0216 94.5877C64.9311 94.3921 64.8568 94.2291 64.7986 94.0987L64.4204 93.3162ZM59.9699 92.5394L60.5656 92.5414C60.839 92.5423 61.1288 92.5433 61.4347 92.5443C61.7473 92.5389 62.0598 92.5367 62.3723 92.5378C62.6848 92.5388 62.9875 92.5398 63.2805 92.5408C63.5735 92.5353 63.8371 92.5329 64.0715 92.5337L62.0647 88.2105L59.9699 92.5394ZM78.108 94.4856L77.3401 96.2994C77.151 96.3834 76.9359 96.4608 76.6948 96.5316C76.4602 96.5959 76.2158 96.6504 75.9618 96.6951C75.7077 96.7398 75.4472 96.7715 75.1802 96.7901C74.9197 96.8153 74.6723 96.8275 74.4379 96.8267C73.6176 96.8239 72.8563 96.7009 72.154 96.4576C71.4582 96.2144 70.8572 95.8608 70.3509 95.3968C69.8447 94.9263 69.4495 94.3521 69.1653 93.674C68.8812 92.996 68.7406 92.2208 68.7435 91.3484C68.7461 90.5802 68.8983 89.8678 69.2 89.2112C69.5017 88.5547 69.917 87.9864 70.446 87.5065C70.975 87.02 71.598 86.6412 72.3151 86.3702C73.0387 86.0992 73.8204 85.9651 74.6602 85.968C74.849 85.9686 75.0475 85.9791 75.2558 85.9993C75.4706 86.013 75.6821 86.0366 75.8903 86.0698C76.0986 86.1031 76.3002 86.1428 76.4954 86.189C76.6906 86.2288 76.8727 86.2717 77.0418 86.3178L77.7683 88.0781L77.6509 88.1461C77.4758 87.9307 77.2649 87.7314 77.0181 87.5482C76.7779 87.3651 76.5115 87.2112 76.2189 87.0866C75.9329 86.9554 75.6305 86.8534 75.3118 86.7807C74.993 86.7081 74.6676 86.6711 74.3356 86.67C73.7952 86.6682 73.3001 86.7609 72.8502 86.9482C72.4069 87.1355 72.0251 87.4109 71.7049 87.7744C71.3911 88.1314 71.1455 88.57 70.968 89.0903C70.7904 89.6105 70.7005 90.1994 70.6983 90.8569C70.6958 91.5991 70.7781 92.2928 70.9452 92.9379C71.1123 93.5765 71.3643 94.134 71.7012 94.6104C72.0382 95.0803 72.4601 95.4528 72.967 95.7279C73.4739 95.9966 74.0659 96.132 74.743 96.1343C75.0685 96.1354 75.3876 96.0975 75.7004 96.0204C76.0197 95.9368 76.3196 95.8207 76.6 95.6719C76.887 95.5231 77.148 95.345 77.3831 95.1374C77.6182 94.9234 77.8208 94.6864 77.991 94.4266L78.108 94.4856ZM79.7279 86.1707C80.3659 86.1729 81.0202 86.1751 81.6908 86.1773C82.3614 86.1731 82.9831 86.1687 83.5561 86.1641C84.129 86.153 84.6206 86.1417 85.0308 86.1301C85.4475 86.1184 85.721 86.0998 85.8513 86.0742L85.4669 87.1276C85.2913 87.0815 85.0928 87.0385 84.8716 86.9987C84.6764 86.9654 84.4389 86.9353 84.159 86.9084C83.8857 86.8749 83.5667 86.8575 83.2022 86.8563C83.072 86.8558 82.9222 86.8618 82.7529 86.8743C82.5836 86.8802 82.4208 86.8894 82.2645 86.9019C82.0822 86.9143 81.8966 86.9267 81.7077 86.9391L81.6947 90.7965C82.222 90.7918 82.6973 90.7804 83.1206 90.7623C83.5438 90.7442 83.9052 90.7194 84.2048 90.6878C84.5565 90.663 84.8658 90.6282 85.1329 90.5835L84.8946 91.7449C84.5367 91.6981 84.1755 91.6578 83.811 91.624C83.4986 91.5904 83.1537 91.5632 82.7761 91.5424C82.3986 91.5151 82.0373 91.5008 81.6923 91.4996L81.6773 95.9332C82.2828 95.9353 82.8395 95.9144 83.3474 95.8705C83.8554 95.8201 84.2983 95.7663 84.6761 95.709C85.1191 95.6389 85.5197 95.5588 85.8781 95.4689L85.6492 96.7474C85.5515 96.7406 85.3921 96.7303 85.1708 96.7165C84.9559 96.7093 84.7281 96.702 84.4872 96.6947C84.2529 96.6939 84.0315 96.6899 83.8232 96.6827C83.6149 96.682 83.4716 96.6815 83.3935 96.6812L79.6924 96.6687L79.6925 96.6296C79.7385 96.4931 79.7782 96.3174 79.8115 96.1027C79.8513 95.888 79.8814 95.6244 79.902 95.312C79.9292 94.993 79.95 94.6155 79.9645 94.1794C79.979 93.7432 79.9872 93.2322 79.9892 92.6462L79.9975 90.1853C79.9995 89.5994 79.9947 89.0915 79.9831 88.6618C79.9716 88.2256 79.9533 87.8512 79.9284 87.5386C79.9099 87.2195 79.8815 86.9525 79.8432 86.7375C79.8114 86.5225 79.7729 86.3466 79.7278 86.2098L79.7279 86.1707Z" fill="#FBFBFB"/>
</svg>
